<svg xmlns="http://www.w3.org/2000/svg" width="18.417" height="16.115" viewBox="0 0 18.417 16.115">
  <path id="bars-solid" d="M.658,62.96h17.1a.658.658,0,0,0,.658-.658V60.658A.658.658,0,0,0,17.759,60H.658A.658.658,0,0,0,0,60.658V62.3A.658.658,0,0,0,.658,62.96Zm0,6.577h17.1a.658.658,0,0,0,.658-.658V67.235a.658.658,0,0,0-.658-.658H.658A.658.658,0,0,0,0,67.235v1.644A.658.658,0,0,0,.658,69.537Zm0,6.577h17.1a.658.658,0,0,0,.658-.658V73.813a.658.658,0,0,0-.658-.658H.658A.658.658,0,0,0,0,73.813v1.644A.658.658,0,0,0,.658,76.115Z" transform="translate(0 -60)" fill="#fff"/>
</svg>
