<svg xmlns="http://www.w3.org/2000/svg" width="152.367" height="30.495" viewBox="0 0 152.367 30.495">
  <g id="Group_3" data-name="Group 3" transform="translate(-403.567 -290.45)">
    <path id="Path_1" data-name="Path 1" d="M515.413,300.917H409.877a6.328,6.328,0,0,0-6.31,6.309h0a6.328,6.328,0,0,0,6.31,6.309H514.955C514.889,309.334,515.212,305.056,515.413,300.917Z" transform="translate(0 -1.528)" fill="#a5a5a5"/>
    <rect id="Rectangle_27" data-name="Rectangle 27" width="99.345" height="30.495" rx="5" transform="translate(422.537 290.45)" fill="#e50000"/>
    <g id="Group_2" data-name="Group 2" transform="translate(431.338 299.198)">
      <path id="Path_2" data-name="Path 2" d="M439.984,300.917v12.618h-3.9V300.917Zm8.087,0-6.06,7.59-.192-.746-2.886,3.729-.842-2.888,5.755-7.685Zm-4.665,4,4.97,8.622h-4.416l-3.442-6.462Z" transform="translate(-436.084 -300.726)" fill="#fff"/>
      <path id="Path_3" data-name="Path 3" d="M451.888,313.535V300.917H462.06v2.925h-6.271v2.046H460.8V308.6h-5.009v2.008h6.52v2.925Z" transform="translate(-438.391 -300.726)" fill="#fff"/>
      <path id="Path_4" data-name="Path 4" d="M481.414,300.917v12.618h-3.441v-5.047l.076-4.072h-.038l-2.772,9.119H472.1l-2.734-9.119h-.057l.076,4.072v5.047h-3.441V300.917h5.506l1.7,5.984.631,2.5h.038l.63-2.5,1.7-5.984Z" transform="translate(-440.443 -300.726)" fill="#fff"/>
      <path id="Path_5" data-name="Path 5" d="M485.332,313.535l4.244-12.618h4.684l4.263,12.618h-4.015l-2.065-7.647-.535-2.065h-.038l-.517,2.045-2.121,7.667Zm3.039-2.619v-2.524H495.5v2.524Z" transform="translate(-443.273 -300.726)" fill="#fff"/>
      <path id="Path_6" data-name="Path 6" d="M502.076,313.535V300.917h6.71a5.949,5.949,0,0,1,3.508.87,2.941,2.941,0,0,1,1.138,2.514,2.812,2.812,0,0,1-.659,1.873,3.194,3.194,0,0,1-2.056.994v.02a3.628,3.628,0,0,1,2.295.994,2.81,2.81,0,0,1,.746,1.988,2.946,2.946,0,0,1-1.138,2.5,5.659,5.659,0,0,1-3.432.861Zm3.747-7.609H508q1.434,0,1.433-1.128T508,303.67h-2.18Zm0,4.97h2.466a1.737,1.737,0,0,0,1.109-.3,1.037,1.037,0,0,0,.363-.851,1.009,1.009,0,0,0-.363-.842,1.783,1.783,0,0,0-1.109-.286h-2.466Z" transform="translate(-445.717 -300.726)" fill="#fff"/>
      <path id="Path_7" data-name="Path 7" d="M523.38,300.693a6.894,6.894,0,0,1,3.374.775,5.25,5.25,0,0,1,2.161,2.227,8.5,8.5,0,0,1,0,7,5.25,5.25,0,0,1-2.161,2.227,7.746,7.746,0,0,1-6.749,0,5.27,5.27,0,0,1-2.189-2.227,8.38,8.38,0,0,1,0-7,5.27,5.27,0,0,1,2.189-2.227A6.96,6.96,0,0,1,523.38,300.693Zm0,2.982a2.051,2.051,0,0,0-1.291.392,2.372,2.372,0,0,0-.764,1.157,7.608,7.608,0,0,0,0,3.929,2.374,2.374,0,0,0,.764,1.167,2.306,2.306,0,0,0,2.572,0,2.3,2.3,0,0,0,.764-1.167,7.886,7.886,0,0,0,0-3.929,2.294,2.294,0,0,0-.764-1.157A2.065,2.065,0,0,0,523.38,303.675Z" transform="translate(-447.903 -300.693)" fill="#fff"/>
    </g>
    <circle id="Ellipse_6" data-name="Ellipse 6" cx="3.888" cy="3.888" r="3.888" transform="translate(405.982 301.81)" fill="#fff"/>
    <rect id="Rectangle_28" data-name="Rectangle 28" width="17.556" height="12.618" transform="translate(521.882 299.389)" fill="#a5a5a5"/>
    <path id="Path_8" data-name="Path 8" d="M571.755,298.082a8.73,8.73,0,0,1,0,17.46" transform="translate(-24.55 -1.114)" fill="#e50000"/>
    <path id="Path_9" data-name="Path 9" d="M569.6,298.082l-12.618,2.455v12.618l12.618,2.386" transform="translate(-22.394 -1.114)" fill="#e50000"/>
    <circle id="Ellipse_7" data-name="Ellipse 7" cx="6.309" cy="6.309" r="6.309" transform="translate(540.896 299.389)" fill="#fff"/>
  </g>
</svg>
