<svg xmlns="http://www.w3.org/2000/svg" width="243.107" height="44.854" viewBox="0 0 243.107 44.854">
  <g id="Group_3" data-name="Group 3" transform="translate(-403.567 -290.45)">
    <path id="Path_1" data-name="Path 1" d="M568.074,300.917H412.847a9.307,9.307,0,0,0-9.28,9.279h0a9.307,9.307,0,0,0,9.28,9.279H567.4C567.3,313.3,567.779,307,568.074,300.917Z" transform="translate(0 2.681)" fill="#a5a5a5"/>
    <rect id="Rectangle_27" data-name="Rectangle 27" width="146.12" height="44.854" rx="5" transform="translate(431.469 290.45)" fill="#e50000"/>
    <g id="Group_2" data-name="Group 2" transform="translate(444.413 303.317)">
      <path id="Path_2" data-name="Path 2" d="M441.821,300.917v18.56h-5.737v-18.56Zm11.894,0L444.8,312.08l-.283-1.1-4.245,5.484-1.239-4.247,8.465-11.3Zm-6.861,5.878,7.311,12.682h-6.5l-5.062-9.505Z" transform="translate(-436.084 -300.636)" fill="#fff"/>
      <path id="Path_3" data-name="Path 3" d="M451.888,319.477v-18.56h14.961v4.3h-9.224v3.01h7.367v3.992h-7.367v2.953h9.589v4.3Z" transform="translate(-432.036 -300.636)" fill="#fff"/>
      <path id="Path_4" data-name="Path 4" d="M488.7,300.917v18.56h-5.061v-7.424l.112-5.989h-.057l-4.077,13.413H475l-4.021-13.413H470.9l.112,5.989v7.424h-5.061v-18.56h8.1l2.5,8.8.928,3.683h.057l.927-3.683,2.5-8.8Z" transform="translate(-428.435 -300.636)" fill="#fff"/>
      <path id="Path_5" data-name="Path 5" d="M485.332,319.477l6.242-18.56h6.89l6.271,18.56h-5.905l-3.037-11.247L495,305.192h-.055l-.76,3.008-3.12,11.276Zm4.471-3.853v-3.712h10.489v3.712Z" transform="translate(-423.47 -300.636)" fill="#fff"/>
      <path id="Path_6" data-name="Path 6" d="M502.076,319.477v-18.56h9.87a8.749,8.749,0,0,1,5.16,1.28,4.326,4.326,0,0,1,1.673,3.7,4.136,4.136,0,0,1-.97,2.755,4.7,4.7,0,0,1-3.024,1.462v.029a5.337,5.337,0,0,1,3.375,1.462,4.133,4.133,0,0,1,1.1,2.924,4.333,4.333,0,0,1-1.673,3.683,8.324,8.324,0,0,1-5.048,1.266Zm5.512-11.192h3.206q2.108,0,2.108-1.659t-2.108-1.658h-3.206Zm0,7.311h3.627a2.555,2.555,0,0,0,1.632-.435,1.526,1.526,0,0,0,.534-1.251,1.484,1.484,0,0,0-.534-1.239,2.622,2.622,0,0,0-1.632-.421h-3.627Z" transform="translate(-419.181 -300.636)" fill="#fff"/>
      <path id="Path_7" data-name="Path 7" d="M526.36,300.693a10.14,10.14,0,0,1,4.963,1.139,7.722,7.722,0,0,1,3.178,3.276,12.5,12.5,0,0,1,0,10.292,7.722,7.722,0,0,1-3.178,3.276,11.394,11.394,0,0,1-9.927,0,7.752,7.752,0,0,1-3.219-3.276,12.326,12.326,0,0,1,0-10.292,7.752,7.752,0,0,1,3.219-3.276A10.237,10.237,0,0,1,526.36,300.693Zm0,4.386a3.018,3.018,0,0,0-1.9.577,3.489,3.489,0,0,0-1.124,1.7,11.192,11.192,0,0,0,0,5.778,3.492,3.492,0,0,0,1.124,1.716,3.391,3.391,0,0,0,3.783,0,3.377,3.377,0,0,0,1.124-1.716,11.6,11.6,0,0,0,0-5.778,3.374,3.374,0,0,0-1.124-1.7A3.038,3.038,0,0,0,526.36,305.079Z" transform="translate(-415.345 -300.693)" fill="#fff"/>
    </g>
    <circle id="Ellipse_6" data-name="Ellipse 6" cx="5.719" cy="5.719" r="5.719" transform="translate(407.119 307.159)" fill="#fff"/>
    <rect id="Rectangle_28" data-name="Rectangle 28" width="44.822" height="18.558" transform="translate(577.589 303.598)" fill="#a5a5a5"/>
    <path id="Path_8" data-name="Path 8" d="M571.755,298.082a12.84,12.84,0,0,1,0,25.681" transform="translate(62.08 1.955)" fill="#e50000"/>
    <path id="Path_9" data-name="Path 9" d="M575.539,298.082l-18.558,3.611v18.558l18.558,3.51" transform="translate(58.296 1.955)" fill="#e50000"/>
    <circle id="Ellipse_7" data-name="Ellipse 7" cx="9.279" cy="9.279" r="9.279" transform="translate(624.555 303.598)" fill="#fff"/>
  </g>
</svg>
